Release Date: 1989
Country: France
Genres: Drama, Romance
Director: Andrzej Zulawski
Stars: Sophie Marceau, Jacques Dutronc, Valérie Lagrange...

Storyline: Lucas has invented a new computer language but at the same time he has been informed about his strange terminal illness during which he has been gradually losing his memory. Shortly after that he meets Blanche who acts as a medium in a bizarre traveling show. Dying Lucas follows her to the sea resort where they spend together several days and nights. 

screenshots 
http://prostopic.net/images/2013/06/pjep6b9hmowbyd7yrguc.jpg.html 
http://prostopic.net/images/2013/06/9187jejmdx1wcnubxue7.jpg.html 
http://prostopic.net/images/2013/06/d8ictzo8do4bf18o5h19.jpg.html 
http://prostopic.net/images/2013/06/5ru85f9s1co40w7slkqo.jpg.html 
http://prostopic.net/images/2013/06/zjq5aoj6v04qqonlum5k.jpg.html


General
Unique ID                                : 185038593946368968047895270159982183225 (0x8B35230B8AAC7108B83C4AF8201AC339)
Complete name                            : E:Mes.nuits.sont.plus.belles.que.vos.jours.1989.mkv
Format                                   : Matroska
Format version                           : Version 4 / Version 2
File size                                : 1.73 GiB
Duration                                 : 1h 50mn
Overall bit rate                         : 2 251 Kbps
Encoded date                             : UTC 2013-06-01 00:20:17
Writing application                      : mkvmerge v6.1.0 ('Old Devil') built on Mar  2 2013 14:32:37
Writing library                          : libebml v1.3.0 + libmatroska v1.4.0

Video
ID                                       : 1
Format                                   : AVC
Format/Info                              : Advanced Video Codec
Format profile                           : High@L4.1
Format settings, CABAC                   : Yes
Format settings, ReFrames                : 8 frames
Codec ID                                 : V_MPEG4/ISO/AVC
Duration                                 : 1h 50mn
Bit rate                                 : 2 057 Kbps
Width                                    : 1 024 pixels
Height                                   : 544 pixels
Display aspect ratio                     : 1.882
Frame rate mode                          : Constant
Frame rate                               : 23.976 fps
Color space                              : YUV
Chroma subsampling                       : 4:2:0
Bit depth                                : 8 bits
Scan type                                : Progressive
Bits/(Pixel*Frame)                       : 0.154
Stream size                              : 1.55 GiB (89%)
Writing library                          : x264 core 115 r1937 aa21558
Encoding settings                        : cabac=1 / ref=8 / deblock=1:-2:-2 / analyse=0x3:0x113 / me=umh / subme=8 / psy=1 / psy_rd=1.00:0.10 / mixed_ref=0 / me_range=32 / chroma_me=1 / trellis=2 / 8x8dct=1 / cqm=0 / deadzone=21,11 / fast_pskip=1 / chroma_qp_offset=-3 / threads=6 / sliced_threads=0 / nr=0 / decimate=1 / interlaced=0 / bluray_compat=0 / constrained_intra=0 / bframes=8 / b_pyramid=2 / b_adapt=2 / b_bias=0 / direct=3 / weightb=1 / open_gop=0 / weightp=0 / keyint=250 / keyint_min=23 / scenecut=40 / intra_refresh=0 / rc_lookahead=30 / rc=2pass / mbtree=1 / bitrate=2057 / ratetol=1.0 / qcomp=0.60 / qpmin=15 / qpmax=47 / qpstep=3 / cplxblur=20.0 / qblur=0.5 / ip_ratio=1.40 / aq=1:1.10
Language                                 : English
Default                                  : Yes
Forced                                   : No

Audio
ID                                       : 2
Format                                   : AC-3
Format/Info                              : Audio Coding 3
Mode extension                           : CM (complete main)
Format settings, Endianness              : Big
Codec ID                                 : A_AC3
Duration                                 : 1h 50mn
Bit rate mode                            : Constant
Bit rate                                 : 192 Kbps
Channel(s)                               : 2 channels
Channel positions                        : Front: L R
Sampling rate                            : 48.0 KHz
Bit depth                                : 16 bits
Compression mode                         : Lossy
Stream size                              : 151 MiB (9%)
Title                                    : Оригинал
Language                                 : French
Default                                  : No
Forced                                   : No

